<svg id="Layer_1" data-name="Layer 1" xmlns="http://www.w3.org/2000/svg" viewBox="0 0 638 409.01"><title>Onitsuka Tiger Logo Vector</title><path d="M234.15,299.81A53.64,53.64,0,1,0,288,352.89,53.72,53.72,0,0,0,234.15,299.81Zm10.92,72a10.37,10.37,0,0,1-10.32,10.56,10.67,10.67,0,0,1-10.56-10.36L223.93,335a10.56,10.56,0,0,1,10.36-10.5,10.34,10.34,0,0,1,10.42,10.37Z" transform="translate(-181 -295.49)"/><path d="M375,376.9l-.31-31.8c-.12-8.72-9.83-15.92-21.68-15.92-8.09.16-15.06,3.25-18.73,7.95v-6.38l-36.53.24.14,18.15a6,6,0,0,1,6.12,5.79l.16,22.65a6.09,6.09,0,0,1-6,6l.14,16,42.42-.33-.12-16a6.12,6.12,0,0,1-6-6.33L334.53,358a5.84,5.84,0,0,1,5.84-5.93,6,6,0,0,1,6.1,5.8l.48,41.36,34.22-.34L381,383A6.11,6.11,0,0,1,375,376.9Z" transform="translate(-181 -295.49)"/><path d="M630.36,373l-.43-44.59-36.5.32.14,16a6.16,6.16,0,0,1,6.07,6l.12,19.07a6.08,6.08,0,0,1-12.15,0l-.26-41-34.51.28.18,16a5.8,5.8,0,0,1,6,5.72l.45,31.81c0,9,9.83,16.16,21.93,16,7.82-.09,14.72-3.1,18.6-7.9v6.55l36.68-.27-.22-18.05A6.08,6.08,0,0,1,630.36,373Z" transform="translate(-181 -295.49)"/><path d="M723.59,375.42l-13.73-17.8,10.39-10c3-1,6.15-1.69,6.15-6.21l-.12-15.28-41.11.32.18,16a4.11,4.11,0,0,0,4,4.51l-8.29,7.83-.48-59.32-36.09.29.11,16.82a6.15,6.15,0,0,1,6.08,6.09l.39,56a5.94,5.94,0,0,1-5.94,6.14l.16,16,42.31-.27v-16a6.22,6.22,0,0,1-6.43-6V373l20.7,23.46,29.13-.29-.18-16.86C727.31,379.3,726,378,723.59,375.42Z" transform="translate(-181 -295.49)"/><path d="M472.34,321.57l-.07-13.82-30.2.28.18,13.75a8.05,8.05,0,0,1-7.72,8.22l.14,17.52a7.67,7.67,0,0,1,7.82,7.61l.4,43.33,37.88-.27-.12-17.54a7.91,7.91,0,0,1-7.92-7.66l-.12-18.06a7.69,7.69,0,0,1,7.73-7.82l-.12-17.52A7.92,7.92,0,0,1,472.34,321.57Z" transform="translate(-181 -295.49)"/><path d="M526.32,353.58s-14.37-2.83-11.08-8.09c3.13-4.57,11.6-1.21,16,3.77l14.2-.07-.16-19.85-13.36.12a4,4,0,0,0-3.06,1.48,59.14,59.14,0,0,0-16.47-2.42c-13.6.12-24.12,10.5-24,23.3s9.46,21.38,23.74,23.73c0,0,11.05,1.62,9.84,5.8-1.28,4-15,3.62-20.83-5.2l-11.79.06.21,21.89L502.9,398s1.17-2.64,4.94-1.41c5.14,1.74,11.46,2.22,17.72,2.15,13.16-.12,23.94-10.24,23.78-22.76S541.39,356.06,526.32,353.58Z" transform="translate(-181 -295.49)"/><path d="M809.57,369.46s.32-8.34.21-23.15c0-15.1-18.74-25.28-39.73-24.53-24.3.66-32.18,6.62-32.18,6.62l5.94,16.7s26.7-7.69,31.4.12c0,0,.67.68-1.84,1.09-3.16.67-4.5-.41-11.63-.34-16.42.12-29.93,11.93-29.86,25.81s13.6,24.92,29.53,24.79a32.63,32.63,0,0,0,16.36-4.18c4.92,1.62,6.38,3.36,6.38,3.36l33.78-.25-.07-15.1A10.6,10.6,0,0,1,809.57,369.46Zm-35.64,8.92c-3.72,0-6.68-3.7-6.8-8,0-4.65,3-8.09,6.67-8.16s6.54,3.38,6.54,8C780.34,374.53,777.66,378.23,773.93,378.38Z" transform="translate(-181 -295.49)"/><path d="M425,376.49,424.57,330l-36.39.34.21,16.77a6.19,6.19,0,0,1,6.08,6.06l.21,23.59a5.93,5.93,0,0,1-6.08,6.06l.13,16,42.2-.25-.1-16A5.89,5.89,0,0,1,425,376.49Z" transform="translate(-181 -295.49)"/><polygon points="243.28 5.46 212.81 5.67 212.99 28.44 243.57 28.23 243.28 5.46"/><path d="M302.45,520.76c-22.42,43.32.26,55,.26,55,19.69-9.72,21.19-58.22,21.19-58.22Z" transform="translate(-181 -295.49)"/><path d="M583,502.49C579.41,513,582,516.91,582,516.91s8.75-.81,14.65-2.95a26,26,0,0,0,1.12-16.45C595,488.21,587.13,491.71,583,502.49Z" transform="translate(-181 -295.49)"/><path d="M483.05,576.75c1.28,3.16,12.52,9.64,19.88,4.11,9.36-6.94-2.27-19.34-2.27-19.34Z" transform="translate(-181 -295.49)"/><path d="M184.75,411.51l1.62,206.93A51.26,51.26,0,0,0,238,669.54L429.15,668s24.55-2.17,74.33,36.47c48.85-39.36,73.36-37.67,73.36-37.67L768,665.34a51.38,51.38,0,0,0,51-51.81l-1.61-207ZM388.25,584c-27.45,36.3-61,39-82.67,31.48-27-9.58-48.54-39.22-36.64-72.25,10.88-31,42.68-40.21,42.68-40.21a92.08,92.08,0,0,0-5.1,9l57.27-10.71s-5.39,29.51-10.17,48.11c-5.06,18.59-39.1,36-39.1,36,18,12.59,40.64,7.08,40.64,7.08l22-104.43c-11.26,1.48-35.72,3-58.66,4.11C296.13,493.31,275.77,503,275.77,503c7-36.6,37.78-41.3,76.05-42.94a368.21,368.21,0,0,0,73.69-11.17c-9.59,31.66-37.72,37.71-37.72,37.71L367.54,589.8A170.79,170.79,0,0,0,388.25,584Zm37.13,12.59c-17.92,6.55-19.54-6.86-18.74-11.59,1-4.82,3.77-22.77,5.87-33.81,2.22-10-1.41-13.22-1.41-13.22-2-1.94,3.76-4.16,5.89-7.26,4.34-5.8,6.3-9.3,13.62-8.16,7.65,1.3,11.32,6.93,10,15.83-1,8.89-5.16,27.5-6.55,36s12.59,2.88,12.59,2.88A39.84,39.84,0,0,1,425.38,596.54Zm8.08-84.82s-13.34-7.88-17.54-9.76c0,0,8.18-9,17.9-13.95a191.68,191.68,0,0,1,19.67,9.5Zm103,4.84C531.89,525,525.9,554.9,524.88,561s2.14,35.31-25.79,44.56c-28.1,9.33-39.91-6.35-39.91-6.35l19.58-18.39c-11.33-9.63-17.16-30-8.63-47.39s30.7-26.8,34.21-28.28a9.78,9.78,0,0,1,6.76-.07c17.23,5.18,18.39,1.14,23.56,1.55C539.68,507.27,541.12,507.88,536.41,516.56Zm87.26-.46-44.15,10.38s-4.18,10.57,1.21,15c5.94,4.8,14.37,3.85,31.39-4.24,0,0-6.42,15.55-26,21.49s-29.9-3.85-31.06-17.45c-1.11-13.39-.33-37.26,18.56-50.8s37-8.5,41.15-6.2S629.14,492.24,623.67,516.1Zm99.78-34.51c-7.23,4.86-20.6-.53-28.21-3.1-7.62-2.41-9.89,1.23-14.91,4.74s-4.73,6.59-4.73,6.59-3,14.68-3.89,20.69c-.88,6.26,3.89,7.08,7.61,7.08s16.59-4.45,16.59-4.45c-20.73,27.89-36.07,32.55-46.49,29.37s-10.74-12.26-9.67-19,3.94-22.09,5.83-29.63-2.24-10.4-2.24-10.4c-.07-1.75,2-4.36,4.23-5.93,2.58-1.74,8.89-8.22,8.89-8.22,10.32-1,18.87,7.57,18.87,7.57,3.65-.7,22.38-14,25.37-15.93s4.32-.87,9.16,1c5,1.81,11.12,2.1,18.36,2.44a138.51,138.51,0,0,1,14.53.73C741.31,469.07,730.21,476.34,723.45,481.59Z" transform="translate(-181 -295.49)"/><path d="M510.55,525.81c-2.57,0-9.59-3.52-13.24-.95-3.75,2.83-6.83,8.49-8.2,12-2,5.18-2,17.11,7.19,20.88,6.49,2.44,4.29-7.27,6.17-12.59,2.13-5.53,5.51-10.85,9.27-13.68C515.12,528.83,513.11,525.81,510.55,525.81Z" transform="translate(-181 -295.49)"/></svg>